<svg version="1.1" viewBox="0.0 0.0 960.0 540.0" fill="none" stroke="none" stroke-linecap="square" stroke-miterlimit="10" xmlns:xlink="http://www.w3.org/1999/xlink" xmlns="http://www.w3.org/2000/svg"><clipPath id="g1e1cf7ef6f9_0_21.0"><path d="m0 0l960.0 0l0 540.0l-960.0 0l0 -540.0z" clip-rule="nonzero"/></clipPath><g clip-path="url(#g1e1cf7ef6f9_0_21.0)"><path fill="#ffffff" d="m0 0l960.0 0l0 540.0l-960.0 0z" fill-rule="evenodd"/><path fill="#eeeeee" d="m673.1522 217.0l129.25983 0l0 86.48819l-129.25983 0z" fill-rule="evenodd"/><path stroke="#595959" stroke-width="1.0" stroke-linejoin="round" stroke-linecap="butt" d="m673.1522 217.0l129.25983 0l0 86.48819l-129.25983 0z" fill-rule="evenodd"/><path fill="#000000" d="m685.43555 251.43909l6.6875 0q2.265625 0 3.453125 0.34375q1.59375 0.46875 2.734375 1.671875q1.140625 1.1875 1.734375 2.9375q0.59375 1.734375 0.59375 4.28125q0 2.234375 -0.5625 3.859375q-0.671875 1.96875 -1.9375 3.203125q-0.953125 0.921875 -2.578125 1.4375q-1.203125 0.390625 -3.234375 0.390625l-6.890625 0l0 -18.125zm3.65625 3.0625l0 12.0l2.734375 0q1.53125 0 2.21875 -0.171875q0.890625 -0.21875 1.46875 -0.75q0.59375 -0.53125 0.96875 -1.75q0.375 -1.21875 0.375 -3.3125q0 -2.109375 -0.375 -3.234375q-0.375 -1.125 -1.046875 -1.75q-0.65625 -0.640625 -1.6875 -0.859375q-0.765625 -0.171875 -3.0 -0.171875l-1.65625 0zm14.666138 -3.0625l7.25 0q2.140625 0 3.203125 0.1875q1.0625 0.171875 1.890625 0.734375q0.828125 0.5625 1.390625 1.515625q0.5625 0.953125 0.5625 2.125q0 1.265625 -0.6875 2.328125q-0.6875 1.0625 -1.859375 1.59375q1.65625 0.484375 2.546875 1.65625q0.890625 1.15625 0.890625 2.734375q0 1.234375 -0.578125 2.40625q-0.578125 1.15625 -1.578125 1.859375q-0.984375 0.703125 -2.453125 0.859375q-0.90625 0.09375 -4.40625 0.125l-6.171875 0l0 -18.125zm3.65625 3.015625l0 4.1875l2.40625 0q2.125 0 2.65625 -0.0625q0.9375 -0.109375 1.46875 -0.640625q0.546875 -0.546875 0.546875 -1.421875q0 -0.84375 -0.46875 -1.359375q-0.46875 -0.53125 -1.375 -0.640625q-0.546875 -0.0625 -3.125 -0.0625l-2.109375 0zm0 7.203125l0 4.84375l3.390625 0q1.984375 0 2.515625 -0.109375q0.8125 -0.140625 1.3125 -0.71875q0.515625 -0.578125 0.515625 -1.53125q0 -0.828125 -0.390625 -1.390625q-0.390625 -0.578125 -1.140625 -0.828125q-0.75 -0.265625 -3.25 -0.265625l-2.953125 0zm13.697449 2.0l3.5625 -0.34375q0.3125 1.796875 1.296875 2.640625q0.984375 0.84375 2.65625 0.84375q1.765625 0 2.65625 -0.75q0.90625 -0.75 0.90625 -1.75q0 -0.640625 -0.390625 -1.09375q-0.375 -0.453125 -1.3125 -0.78125q-0.640625 -0.234375 -2.921875 -0.796875q-2.953125 -0.734375 -4.140625 -1.796875q-1.65625 -1.5 -1.65625 -3.640625q0 -1.390625 0.78125 -2.59375q0.78125 -1.203125 2.25 -1.828125q1.484375 -0.640625 3.578125 -0.640625q3.40625 0 5.125 1.5q1.734375 1.484375 1.828125 3.984375l-3.65625 0.171875q-0.25 -1.40625 -1.015625 -2.015625q-0.765625 -0.609375 -2.3125 -0.609375q-1.609375 0 -2.5 0.65625q-0.578125 0.421875 -0.578125 1.125q0 0.640625 0.53125 1.09375q0.703125 0.578125 3.375 1.21875q2.671875 0.625 3.9375 1.296875q1.28125 0.671875 2.0 1.84375q0.734375 1.171875 0.734375 2.890625q0 1.5625 -0.875 2.921875q-0.859375 1.359375 -2.4375 2.03125q-1.578125 0.65625 -3.953125 0.65625q-3.4375 0 -5.28125 -1.59375q-1.828125 -1.59375 -2.1875 -4.640625zm29.40924 -0.765625l3.5625 1.125q-0.828125 2.96875 -2.734375 4.421875q-1.890625 1.4375 -4.796875 1.4375q-3.625 0 -5.953125 -2.46875q-2.3125 -2.46875 -2.3125 -6.75q0 -4.53125 2.328125 -7.03125q2.34375 -2.5 6.15625 -2.5q3.328125 0 5.40625 1.96875q1.234375 1.15625 1.84375 3.328125l-3.625 0.875q-0.3125 -1.40625 -1.34375 -2.21875q-1.015625 -0.828125 -2.46875 -0.828125q-2.015625 0 -3.28125 1.453125q-1.25 1.4375 -1.25 4.6875q0 3.4375 1.234375 4.90625q1.234375 1.453125 3.21875 1.453125q1.46875 0 2.515625 -0.921875q1.046875 -0.9375 1.5 -2.9375zm23.041199 6.671875l-3.984375 0l-1.578125 -4.125l-7.25 0l-1.484375 4.125l-3.890625 0l7.0625 -18.125l3.875 0l7.25 18.125zm-6.734375 -7.171875l-2.5 -6.734375l-2.453125 6.734375l4.953125 0zm8.713013 7.171875l0 -18.125l3.5625 0l7.421875 12.109375l0 -12.109375l3.40625 0l0 18.125l-3.671875 0l-7.3125 -11.828125l0 11.828125l-3.40625 0z" fill-rule="nonzero"/><path fill="#eeeeee" d="m267.03412 252.50131l15.51181 0l0 -5.0l10.0 10.0l-10.0 10.0l0 -5.0l-15.51181 0z" fill-rule="evenodd"/><path stroke="#595959" stroke-width="1.0" stroke-linejoin="round" stroke-linecap="butt" d="m267.03412 252.50131l15.51181 0l0 -5.0l10.0 10.0l-10.0 10.0l0 -5.0l-15.51181 0z" fill-rule="evenodd"/><path fill="#eeeeee" d="m448.97113 255.2441l15.51181 0l0 -5.0l10.0 9.999985l-10.0 10.0l0 -5.0l-15.51181 0z" fill-rule="evenodd"/><path stroke="#595959" stroke-width="1.0" stroke-linejoin="round" stroke-linecap="butt" d="m448.97113 255.2441l15.51181 0l0 -5.0l10.0 9.999985l-10.0 10.0l0 -5.0l-15.51181 0z" fill-rule="evenodd"/><path fill="#eeeeee" d="m630.90814 255.2441l15.51178 0l0 -5.0l10.0 9.999985l-10.0 10.0l0 -5.0l-15.51178 0z" fill-rule="evenodd"/><path stroke="#595959" stroke-width="1.0" stroke-linejoin="round" stroke-linecap="butt" d="m630.90814 255.2441l15.51178 0l0 -5.0l10.0 9.999985l-10.0 10.0l0 -5.0l-15.51178 0z" fill-rule="evenodd"/><path fill="#eeeeee" d="m489.11548 217.0l129.25983 0l0 86.48819l-129.25983 0z" fill-rule="evenodd"/><path stroke="#595959" stroke-width="1.0" stroke-linejoin="round" stroke-linecap="butt" d="m489.11548 217.0l129.25983 0l0 86.48819l-129.25983 0z" fill-rule="evenodd"/><path fill="#000000" d="m528.85114 269.5641l0 -18.125l5.875 0q3.34375 0 4.359375 0.265625q1.546875 0.40625 2.59375 1.78125q1.0625 1.359375 1.0625 3.53125q0 1.65625 -0.609375 2.796875q-0.609375 1.140625 -1.546875 1.796875q-0.921875 0.640625 -1.890625 0.859375q-1.3125 0.25 -3.796875 0.25l-2.390625 0l0 6.84375l-3.65625 0zm3.65625 -15.0625l0 5.140625l2.0 0q2.171875 0 2.890625 -0.28125q0.734375 -0.28125 1.140625 -0.890625q0.421875 -0.609375 0.421875 -1.40625q0 -1.0 -0.578125 -1.640625q-0.578125 -0.640625 -1.46875 -0.796875q-0.65625 -0.125 -2.640625 -0.125l-1.765625 0zm24.831177 8.390625l3.5625 1.125q-0.828125 2.96875 -2.734375 4.421875q-1.890625 1.4375 -4.796875 1.4375q-3.625 0 -5.953125 -2.46875q-2.3125 -2.46875 -2.3125 -6.75q0 -4.53125 2.328125 -7.03125q2.34375 -2.5 6.15625 -2.5q3.328125 0 5.40625 1.96875q1.234375 1.15625 1.84375 3.328125l-3.625 0.875q-0.3125 -1.40625 -1.34375 -2.21875q-1.015625 -0.828125 -2.46875 -0.828125q-2.015625 0 -3.28125 1.453125q-1.25 1.4375 -1.25 4.6875q0 3.4375 1.234375 4.90625q1.234375 1.453125 3.21875 1.453125q1.46875 0 2.515625 -0.921875q1.046875 -0.9375 1.5 -2.9375zm23.041199 6.671875l-3.984375 0l-1.578125 -4.125l-7.25 0l-1.484375 4.125l-3.890625 0l7.0625 -18.125l3.875 0l7.25 18.125zm-6.734375 -7.171875l-2.5 -6.734375l-2.453125 6.734375l4.953125 0z" fill-rule="nonzero"/><path fill="#eeeeee" d="m125.24147 214.25722l129.25984 0l0 86.488174l-129.25984 0z" fill-rule="evenodd"/><path stroke="#595959" stroke-width="1.0" stroke-linejoin="round" stroke-linecap="butt" d="m125.24147 214.25722l129.25984 0l0 86.488174l-129.25984 0z" fill-rule="evenodd"/><path fill="#000000" d="m155.7048 266.82132l0 -15.0625l-5.375 0l0 -3.0625l14.40625 0l0 3.0625l-5.375 0l0 15.0625l-3.65625 0zm11.424561 0l0 -18.125l12.421875 0l0 3.0625l-8.765625 0l0 4.296875l7.5625 0l0 3.0625l-7.5625 0l0 7.703125l-3.65625 0zm15.018311 -4.828125l0 -3.484375l6.828125 0l0 3.484375l-6.828125 0zm8.7469635 4.828125l0 -18.125l3.65625 0l0 18.125l-3.65625 0zm7.130722 -18.125l6.6875 0q2.265625 0 3.453125 0.34375q1.59375 0.46875 2.734375 1.671875q1.140625 1.1875 1.734375 2.9375q0.59375 1.734375 0.59375 4.28125q0 2.234375 -0.5625 3.859375q-0.671875 1.96875 -1.9375 3.203125q-0.953125 0.921875 -2.578125 1.4375q-1.203125 0.390625 -3.234375 0.390625l-6.890625 0l0 -18.125zm3.65625 3.0625l0 12.0l2.734375 0q1.53125 0 2.21875 -0.171875q0.890625 -0.21875 1.46875 -0.75q0.59375 -0.53125 0.96875 -1.75q0.375 -1.21875 0.375 -3.3125q0 -2.109375 -0.375 -3.234375q-0.375 -1.125 -1.046875 -1.75q-0.65625 -0.640625 -1.6875 -0.859375q-0.765625 -0.171875 -3.0 -0.171875l-1.65625 0zm14.681793 15.0625l0 -18.125l12.421875 0l0 3.0625l-8.765625 0l0 4.296875l7.5625 0l0 3.0625l-7.5625 0l0 7.703125l-3.65625 0z" fill-rule="nonzero"/><path fill="#eeeeee" d="m305.07742 217.0l129.25986 0l0 86.48819l-129.25986 0z" fill-rule="evenodd"/><path stroke="#595959" stroke-width="1.0" stroke-linejoin="round" stroke-linecap="butt" d="m305.07742 217.0l129.25986 0l0 86.48819l-129.25986 0z" fill-rule="evenodd"/><path fill="#000000" d="m345.61795 269.5641l0 -17.984375l3.671875 0l0 14.921875l9.09375 0l0 3.0625l-12.765625 0zm15.362061 -18.125l6.6875 0q2.265625 0 3.453125 0.34375q1.59375 0.46875 2.734375 1.671875q1.140625 1.1875 1.734375 2.9375q0.59375 1.734375 0.59375 4.28125q0 2.234375 -0.5625 3.859375q-0.671875 1.96875 -1.9375 3.203125q-0.953125 0.921875 -2.578125 1.4375q-1.203125 0.390625 -3.234375 0.390625l-6.890625 0l0 -18.125zm3.65625 3.0625l0 12.0l2.734375 0q1.53125 0 2.21875 -0.171875q0.890625 -0.21875 1.46875 -0.75q0.59375 -0.53125 0.96875 -1.75q0.375 -1.21875 0.375 -3.3125q0 -2.109375 -0.375 -3.234375q-0.375 -1.125 -1.046875 -1.75q-0.65625 -0.640625 -1.6875 -0.859375q-0.765625 -0.171875 -3.0 -0.171875l-1.65625 0zm30.994293 15.0625l-3.984375 0l-1.578125 -4.125l-7.25 0l-1.484375 4.125l-3.890625 0l7.0625 -18.125l3.875 0l7.25 18.125zm-6.734375 -7.171875l-2.5 -6.734375l-2.453125 6.734375l4.953125 0z" fill-rule="nonzero"/></g></svg>